#define 1626173191260_width 18
#define 1626173191260_height 18
static char 1626173191260_bits[] = {
  0x00, 0xFE, 0x03, 0x00, 0xFE, 0x03, 0x00, 0xFE, 0x03, 0x20, 0x80, 0x03, 
  0xA0, 0x80, 0x03, 0xD8, 0x81, 0x03, 0x20, 0x16, 0x00, 0x90, 0x29, 0x00, 
  0x90, 0x2A, 0x00, 0x47, 0x15, 0x00, 0x47, 0x5A, 0x00, 0x87, 0x26, 0x00, 
  0x07, 0x89, 0x03, 0x87, 0x82, 0x03, 0x47, 0x89, 0x03, 0x3F, 0xF0, 0x03, 
  0x3F, 0xF0, 0x03, 0x3F, 0xF0, 0x03, };
